<svg xmlns="http://www.w3.org/2000/svg" viewBox="0 0 80 80"><title>Camperfolks</title><rect x="3" y="3" width="74" height="74" rx="20" fill="#F5EFDF" stroke="#E8AF37" stroke-width="5"/><rect x="9" y="9" width="62" height="62" rx="14" fill="none" stroke="#9F751F" stroke-width="1" stroke-dasharray="2 3"/><path fill="#15323B" d="M35.679 58.22Q31.592 58.22 28.176 57.0Q24.759999999999998 55.78 22.259 53.522999999999996Q19.758 51.266 18.354999999999997 48.093999999999994Q16.951999999999998 44.922 16.951999999999998 40.957Q16.951999999999998 37.053 18.3855 33.8505Q19.819 30.648 22.381 28.391Q24.942999999999998 26.134 28.389499999999998 24.914Q31.836 23.694000000000003 35.861999999999995 23.694000000000003Q37.509 23.694000000000003 39.1865 23.968500000000002Q40.864000000000004 24.243000000000002 42.4195 24.731Q43.974999999999994 25.219 45.2865 25.829Q46.598 26.439 47.513 27.171L40.498000000000005 37.297Q39.766 36.443 38.576499999999996 35.9855Q37.387 35.528 36.289 35.528Q35.251999999999995 35.528 34.275999999999996 35.8635Q33.3 36.199 32.537499999999994 36.9005Q31.775 37.602000000000004 31.287 38.60850000000001Q30.799 39.615 30.799 40.957Q30.799 42.299 31.287 43.305499999999995Q31.775 44.312 32.537499999999994 44.9525Q33.3 45.593 34.275999999999996 45.9285Q35.251999999999995 46.263999999999996 36.289 46.263999999999996Q37.509 46.263999999999996 38.668 45.8065Q39.827 45.349000000000004 40.559 44.556L47.635 54.438Q45.622 56.024 42.4195 57.122Q39.217 58.22 35.679 58.22Z"/><circle cx="61" cy="56" r="5" fill="#E8AF37"/></svg>