<svg xmlns="http://www.w3.org/2000/svg" viewBox="0 0 64 64"><rect width="64" height="64" rx="3" fill="#141615"/><path fill="#F0EFE9" d="M24.52 43.0V32.8Q24.52 32.06 24.439999999999998 30.91Q24.36 29.759999999999998 23.939999999999998 28.599999999999998Q23.52 27.439999999999998 22.57 26.659999999999997Q21.62 25.88 19.880000000000003 25.88Q19.18 25.88 18.38 26.1Q17.58 26.32 16.88 26.95Q16.18 27.58 15.73 28.799999999999997Q15.28 30.02 15.28 32.04L12.16 30.560000000000002Q12.16 28.0 13.2 25.759999999999998Q14.24 23.52 16.330000000000002 22.14Q18.42 20.759999999999998 21.6 20.759999999999998Q24.14 20.759999999999998 25.740000000000002 21.619999999999997Q27.34 22.48 28.23 23.8Q29.12 25.12 29.5 26.55Q29.88 27.98 29.96 29.16Q30.04 30.34 30.04 30.88V43.0ZM9.76 43.0V14.2H14.600000000000001V29.0H15.28V43.0Z"/><path fill="#FF4B24" d="M 34 48 l 14 -33 h 8 l -14 33 Z"/></svg>